<svg xmlns="http://www.w3.org/2000/svg" width="30" height="32"><path fill="#212121" d="m28.437 19.831-7.577-7.633.841-4.142c.202.081.436.129.68.131H22.41a1.938 1.938 0 1 0-1.822-1.275l-.004-.013-4.451.544L8.872.144A.477.477 0 0 0 8.534 0a.478.478 0 0 0-.335.14L6.842 1.49a.475.475 0 0 0 0 .676l.73.74c-1.026 1.851-1.63 4.058-1.63 6.407a13.37 13.37 0 0 0 3.891 9.446l-.001-.001a.454.454 0 0 0 .131.087 2.663 2.663 0 0 0-.047.49v5.553H4.172a2.397 2.397 0 0 0-2.394 2.393v.957a.48.48 0 0 0 .479.479h22.017a.478.478 0 0 0 .478-.479v-.957a2.396 2.396 0 0 0-2.393-2.393h-5.744v-2.461a13.275 13.275 0 0 0 9.123-1.348l-.069.035.734.738c.089.091.21.142.338.144a.478.478 0 0 0 .335-.14l1.357-1.35a.475.475 0 0 0 0-.676zM21.713 5.594a.956.956 0 0 1 1.632.678.958.958 0 0 1-.957.957h-.003a.957.957 0 0 1-.67-1.636h-.002zm-1.127 3.144-.537 2.644-1.055-1.061 1.592-1.582zm-.544-.809-1.723 1.713-1.333-1.34 3.056-.373zm2.321 17.917c.793 0 1.436.643 1.436 1.436v.479H2.739v-.479c0-.793.643-1.436 1.436-1.436h18.188zm-6.701-1.915v.958h-4.786v-.958h4.786zm-4.786-.957v-3.638c0-1.161 1.074-2.106 2.393-2.106s2.393.945 2.393 2.106v3.638h-4.786zm5.743-1.522v-2.116c0-1.689-1.503-3.063-3.351-3.063h-.052c-1.214 0-2.28.634-2.884 1.589l-.008.014a12.4 12.4 0 0 1-3.421-8.57c0-2.077.509-4.035 1.408-5.756l-.033.069 16.694 16.79a12.232 12.232 0 0 1-5.623 1.348c-.968 0-1.91-.111-2.814-.321l.084.016zm10.131-.613L7.853 1.831l.677-.675 7.121 7.161c.003 0 .005.006.009.009l11.769 11.838-.679.675z"/><path fill="#2196f3" d="M13.273 18.188h-.006a1.436 1.436 0 0 0-.002 2.872h.006a1.436 1.436 0 0 0 .002-2.872zm.335 1.775a.48.48 0 1 1-.34-.818.478.478 0 0 1 .335.817h.004z"/></svg>